<svg width="79" height="73" viewBox="0 0 79 73" fill="none" xmlns="http://www.w3.org/2000/svg">
<path d="M73.9886 1.09387L44.0894 23.3005L49.6185 10.1989L73.9886 1.09387Z" fill="#E2761B" stroke="#E2761B" stroke-width="0.300495" stroke-linecap="round" stroke-linejoin="round"/>
<path d="M4.96484 1.09332L34.6237 23.5103L29.365 10.1983L4.96484 1.09332Z" fill="#E4761B" stroke="#E4761B" stroke-width="0.300495" stroke-linecap="round" stroke-linejoin="round"/>
<path d="M63.2307 52.5681L55.2676 64.7682L72.3056 69.4559L77.2037 52.8386L63.2307 52.5681Z" fill="#E4761B" stroke="#E4761B" stroke-width="0.300495" stroke-linecap="round" stroke-linejoin="round"/>
<path d="M1.80957 52.8386L6.67759 69.4559L23.7157 64.7682L15.7525 52.5681L1.80957 52.8386Z" fill="#E4761B" stroke="#E4761B" stroke-width="0.300495" stroke-linecap="round" stroke-linejoin="round"/>
<path d="M22.7542 31.955L18.0063 39.1368L34.9242 39.8881L34.3232 21.7081L22.7542 31.955Z" fill="#E4761B" stroke="#E4761B" stroke-width="0.300495" stroke-linecap="round" stroke-linejoin="round"/>
<path d="M56.1993 31.955L44.48 21.4978L44.0894 39.8881L60.9772 39.1368L56.1993 31.955Z" fill="#E4761B" stroke="#E4761B" stroke-width="0.300495" stroke-linecap="round" stroke-linejoin="round"/>
<path d="M23.7158 64.7685L33.8726 59.8103L25.0981 52.959L23.7158 64.7685Z" fill="#E4761B" stroke="#E4761B" stroke-width="0.300495" stroke-linecap="round" stroke-linejoin="round"/>
<path d="M45.0811 59.8103L55.2678 64.7685L53.8555 52.959L45.0811 59.8103Z" fill="#E4761B" stroke="#E4761B" stroke-width="0.300495" stroke-linecap="round" stroke-linejoin="round"/>
<path d="M55.2678 64.7683L45.0811 59.8102L45.8924 66.4511L45.8022 69.2457L55.2678 64.7683Z" fill="#D7C1B3" stroke="#D7C1B3" stroke-width="0.300495" stroke-linecap="round" stroke-linejoin="round"/>
<path d="M23.7158 64.7709L33.1814 69.2482L33.1213 66.4536L33.8726 59.8127L23.7158 64.7709Z" fill="#D7C1B3" stroke="#D7C1B3" stroke-width="0.300495" stroke-linecap="round" stroke-linejoin="round"/>
<path d="M33.3319 48.5718L24.8579 46.0777L30.8378 43.3432L33.3319 48.5718Z" fill="#233447" stroke="#233447" stroke-width="0.300495" stroke-linecap="round" stroke-linejoin="round"/>
<path d="M45.6221 48.5718L48.1162 43.3432L54.1261 46.0777L45.6221 48.5718Z" fill="#233447" stroke="#233447" stroke-width="0.300495" stroke-linecap="round" stroke-linejoin="round"/>
<path d="M23.7156 64.7683L25.1579 52.5682L15.7524 52.8387L23.7156 64.7683Z" fill="#CD6116" stroke="#CD6116" stroke-width="0.300495" stroke-linecap="round" stroke-linejoin="round"/>
<path d="M53.8252 52.5682L55.2676 64.7683L63.2307 52.8387L53.8252 52.5682Z" fill="#CD6116" stroke="#CD6116" stroke-width="0.300495" stroke-linecap="round" stroke-linejoin="round"/>
<path d="M60.9772 39.1355L44.0894 39.8867L45.6519 48.571L48.146 43.3424L54.1559 46.0769L60.9772 39.1355Z" fill="#CD6116" stroke="#CD6116" stroke-width="0.300495" stroke-linecap="round" stroke-linejoin="round"/>
<path d="M24.8576 46.0769L30.8675 43.3424L33.3316 48.571L34.9242 39.8867L18.0063 39.1355L24.8576 46.0769Z" fill="#CD6116" stroke="#CD6116" stroke-width="0.300495" stroke-linecap="round" stroke-linejoin="round"/>
<path d="M18.0063 39.1353L25.098 52.9581L24.8576 46.0768L18.0063 39.1353Z" fill="#E4751F" stroke="#E4751F" stroke-width="0.300495" stroke-linecap="round" stroke-linejoin="round"/>
<path d="M54.156 46.0769L53.8555 52.9582L60.9772 39.1354L54.156 46.0769Z" fill="#E4751F" stroke="#E4751F" stroke-width="0.300495" stroke-linecap="round" stroke-linejoin="round"/>
<path d="M34.9242 39.8875L33.3315 48.5718L35.3148 58.8187L35.7655 45.3264L34.9242 39.8875Z" fill="#E4751F" stroke="#E4751F" stroke-width="0.300495" stroke-linecap="round" stroke-linejoin="round"/>
<path d="M44.0892 39.8875L43.2778 45.2964L43.6384 58.8187L45.6517 48.5718L44.0892 39.8875Z" fill="#E4751F" stroke="#E4751F" stroke-width="0.300495" stroke-linecap="round" stroke-linejoin="round"/>
<path d="M45.652 48.572L43.6387 58.8188L45.081 59.8105L53.8555 52.9592L54.156 46.0779L45.652 48.572Z" fill="#F6851B" stroke="#F6851B" stroke-width="0.300495" stroke-linecap="round" stroke-linejoin="round"/>
<path d="M24.8579 46.0779L25.0983 52.9592L33.8728 59.8105L35.3151 58.8188L33.3319 48.572L24.8579 46.0779Z" fill="#F6851B" stroke="#F6851B" stroke-width="0.300495" stroke-linecap="round" stroke-linejoin="round"/>
<path d="M45.8022 69.247L45.8924 66.4524L45.1411 65.7913H33.8124L33.1213 66.4524L33.1814 69.247L23.7158 64.7696L27.0213 67.4741L33.7223 72.1318H45.2313L51.9624 67.4741L55.2678 64.7696L45.8022 69.247Z" fill="#C0AD9E" stroke="#C0AD9E" stroke-width="0.300495" stroke-linecap="round" stroke-linejoin="round"/>
<path d="M45.0813 59.8104L43.6389 58.8187H35.3152L33.8728 59.8104L33.1216 66.4513L33.8127 65.7902H45.1414L45.8926 66.4513L45.0813 59.8104Z" fill="#161616" stroke="#161616" stroke-width="0.300495" stroke-linecap="round" stroke-linejoin="round"/>
<path d="M75.2508 24.7423L77.805 12.4821L73.9887 1.09332L45.0811 22.5487L56.1994 31.9542L71.9153 36.5517L75.401 32.4951L73.8985 31.4133L76.3025 29.2197L74.4394 27.7773L76.8434 25.9443L75.2508 24.7423Z" fill="#763D16" stroke="#763D16" stroke-width="0.300495" stroke-linecap="round" stroke-linejoin="round"/>
<path d="M1.17871 12.4821L3.73292 24.7422L2.11025 25.9442L4.51421 27.7772L2.68119 29.2196L5.08515 31.4132L3.58267 32.495L7.03836 36.5517L22.7543 31.9541L33.8726 22.5486L4.96495 1.09329L1.17871 12.4821Z" fill="#763D16" stroke="#763D16" stroke-width="0.300495" stroke-linecap="round" stroke-linejoin="round"/>
<path d="M71.9152 36.552L56.1993 31.9544L60.9772 39.1363L53.8555 52.959L63.2309 52.8388H77.2039L71.9152 36.552Z" fill="#F6851B" stroke="#F6851B" stroke-width="0.300495" stroke-linecap="round" stroke-linejoin="round"/>
<path d="M22.7541 31.9544L7.03818 36.552L1.80957 52.8388H15.7525L25.0979 52.959L18.0063 39.1363L22.7541 31.9544Z" fill="#F6851B" stroke="#F6851B" stroke-width="0.300495" stroke-linecap="round" stroke-linejoin="round"/>
<path d="M44.0895 39.8885L45.0811 22.5499L49.6487 10.1996H29.3652L33.8727 22.5499L34.9244 39.8885L35.285 45.3575L35.315 58.8197H43.6388L43.6988 45.3575L44.0895 39.8885Z" fill="#F6851B" stroke="#F6851B" stroke-width="0.300495" stroke-linecap="round" stroke-linejoin="round"/>
</svg>
