<svg width="80" height="80" viewBox="0 0 80 80" fill="none" xmlns="http://www.w3.org/2000/svg">
<circle cx="40" cy="40" r="40" fill="#3283F0"/>
<path d="M23.2083 28.9784C32.4822 19.8985 47.518 19.8985 56.7919 28.9784L57.908 30.0711C58.3717 30.5251 58.3717 31.2612 57.908 31.7152L54.09 35.4534C53.8581 35.6804 53.4822 35.6804 53.2504 35.4534L51.7145 33.9496C45.2448 27.6152 34.7554 27.6152 28.2857 33.9496L26.6409 35.56C26.4091 35.787 26.0332 35.787 25.8013 35.56L21.9833 31.8218C21.5196 31.3678 21.5196 30.6318 21.9833 30.1778L23.2083 28.9784ZM64.6879 36.7093L68.086 40.0363C68.5497 40.4903 68.5497 41.2263 68.086 41.6803L52.7639 56.6821C52.3002 57.1361 51.5485 57.1361 51.0848 56.6822C51.0848 56.6821 51.0848 56.6821 51.0847 56.6821L40.2101 46.0349C40.0942 45.9214 39.9062 45.9214 39.7903 46.0349C39.7903 46.0349 39.7903 46.0349 39.7903 46.0349L28.9158 56.6821C28.4522 57.1361 27.7004 57.1361 27.2367 56.6822C27.2367 56.6822 27.2367 56.6822 27.2367 56.6821L11.9142 41.6801C11.4505 41.2261 11.4505 40.4901 11.9142 40.0361L15.3122 36.7091C15.7759 36.2551 16.5277 36.2551 16.9914 36.7091L27.8662 47.3565C27.9822 47.47 28.1701 47.47 28.286 47.3565C28.286 47.3565 28.286 47.3565 28.286 47.3565L39.1603 36.7091C39.624 36.2551 40.3758 36.2551 40.8395 36.7091C40.8395 36.7091 40.8395 36.7091 40.8395 36.7091L51.7143 47.3565C51.8302 47.47 52.0182 47.47 52.1341 47.3565L63.0088 36.7093C63.4725 36.2553 64.2242 36.2553 64.6879 36.7093Z" fill="white"/>
</svg>
